# xmcd
#
# Track frame offsets: 
#        150
#        16492
#        32544
#        52098
#        69017
#        90816
#        106825
#        125457
#        141566
#        162228
#        178638
#        194030
#        212254
#        227774
#        252197
#        268264
#
# Disc length: 3819 seconds
#
# Revision: 0
# Processed by: cddbd v1.5.1PL2 Copyright (c) Steve Scherf et al.
# Submitted via: ExactAudioCopy v0.95b4
#
DISCID=d90ee910
DTITLE=Various Artist - Compilation001
DYEAR=2002
DGENRE=Pop
TTITLE0=Backstreet Boys - I Want It That Way
TTITLE1=Britney Spears - Baby One More Time
TTITLE2=Alanis Morissette - Thank You
TTITLE3=Vengaboys - We Like To Party
TTITLE4=Backstreet Boys - Everybody
TTITLE5=Britney Spears - Oops, I Did It Again
TTITLE6=Natalie Imbruglia - Torn
TTITLE7=Goo Goo Dolls - Slide
TTITLE8=Shawn Mullins - Lullaby
TTITLE9=Vanessa Amorosi - The Power
TTITLE10=Britney Spears - Stronger
TTITLE11=Tina Cousins - Forever
TTITLE12=Bryan Adams - When You're Gone
TTITLE13=Eric Clapton - My Father's Eyes
TTITLE14=Shania Twain - Still The One
TTITLE15=Celine Dion - That's The Way It Is
EXTD=
EXTT0=
EXTT1=
EXTT2=
EXTT3=
EXTT4=
EXTT5=
EXTT6=
EXTT7=
EXTT8=
EXTT9=
EXTT10=
EXTT11=
EXTT12=
EXTT13=
EXTT14=
EXTT15=
PLAYORDER=
